<svg xmlns="http://www.w3.org/2000/svg" viewBox="0 0 100 100" fill="none">
  <defs>
    <linearGradient id="g" x1="0%" y1="0%" x2="100%" y2="100%">
      <stop offset="0%" style="stop-color:#8b5cf6"/>
      <stop offset="100%" style="stop-color:#6d28d9"/>
    </linearGradient>
  </defs>
  <rect width="100" height="100" rx="20" fill="url(#g)"/>
  <path d="M22 30h40a8 8 0 0 1 8 8v22a8 8 0 0 1-8 8H42l-12 10v-10H22a8 8 0 0 1-8-8V38a8 8 0 0 1 8-8z" fill="rgba(255,255,255,0.95)"/>
  <circle cx="34" cy="49" r="4" fill="#8b5cf6"/>
  <circle cx="48" cy="49" r="4" fill="#8b5cf6"/>
  <circle cx="62" cy="49" r="4" fill="#8b5cf6"/>
  <circle cx="78" cy="28" r="8" fill="rgba(255,255,255,0.9)"/>
  <path d="M78 23v10M73 28h10" stroke="#8b5cf6" stroke-width="2.5" stroke-linecap="round"/>
</svg>
